<svg xmlns="http://www.w3.org/2000/svg" version="1.1" xmlns:xlink="http://www.w3.org/1999/xlink" xmlns:svgjs="http://svgjs.dev/svgjs" width="2758.45" height="2758.45"><svg xmlns="http://www.w3.org/2000/svg" viewBox="0 0 2758.45 2758.45"><defs><style>.cls-1{fill:#1a1a1a;stroke:#000;stroke-miterlimit:10;}.cls-2{fill:#fff;}</style></defs><g id="SvgjsG1087" data-name="Layer 2"><g id="SvgjsG1086" data-name="Layer 1"><rect class="cls-1" x="0.5" y="0.5" width="2757.45" height="2757.45" rx="744.51"></rect><g id="SvgjsG1085"><g id="SvgjsG1084" data-name="يا"><polygon id="SvgjsPolygon1083" data-name="يا" class="cls-2" points="1643.76 2036.95 1115.49 2036.95 1115.49 578.11 1224.53 578.11 1224.53 1927.91 1534.72 1927.91 1534.72 1594.7 1643.76 1594.7 1643.76 2036.95"></polygon></g></g><g id="SvgjsG1082"><g id="SvgjsG1081" data-name="ء"><polygon id="SvgjsPolygon1080" data-name="ء" class="cls-2" points="1500.38 1703.34 1500.38 1594.7 1259.11 1594.7 1259.11 1782.93 1259.27 1782.93 1259.27 1891.97 1500.38 1891.97 1500.38 1782.93 1368.55 1782.93 1368.55 1703.34 1500.38 1703.34"></polygon></g></g><g id="SvgjsG1079"><g id="SvgjsG1078" data-name="ا"><rect id="SvgjsRect1077" data-name="ا" class="cls-2" x="1259.11" y="578.11" width="109.04" height="982.24"></rect></g></g><g id="SvgjsG1076" data-name="left of د"><g id="SvgjsG1075" data-name="left of د"><polygon id="SvgjsPolygon1074" data-name="left of د" class="cls-2" points="1080.35 2071.3 1080.35 1782.93 970.9 1782.93 970.9 2180.34 1190.19 2180.34 1190.19 2071.3 1080.35 2071.3"></polygon></g></g><g id="SvgjsG1073" data-name="left square"><g id="SvgjsG1072" data-name="left square"><rect id="SvgjsRect1071" data-name="left square" class="cls-2" x="1213.22" y="2071.29" width="109.04" height="109.04"></rect></g></g><g id="SvgjsG1070" data-name="center of د"><g id="SvgjsG1069" data-name="center of د"><rect id="SvgjsRect1068" data-name="center of د" class="cls-2" x="1345.28" y="2071.29" width="69.08" height="109.04"></rect></g></g><g id="SvgjsG1067" data-name="right square"><rect id="SvgjsRect1066" data-name="right square" class="cls-2" x="1437.39" y="2071.29" width="109.04" height="109.04"></rect></g><g id="SvgjsG1065" data-name="right of daal"><polygon class="cls-2" points="1678.5 1782.93 1678.5 2071.3 1569.46 2071.3 1569.46 2180.34 1787.54 2180.34 1787.54 1782.93 1678.5 1782.93"></polygon></g></g></g></svg><style>@media (prefers-color-scheme: light) { :root { filter: none; } }
@media (prefers-color-scheme: dark) { :root { filter: none; } }
</style></svg>